<svg width="220" height="220" viewBox="0 0 220 220" fill="none" xmlns="http://www.w3.org/2000/svg">
<rect width="220" height="220" fill="white"/>
<path d="M47.74 62.07C49.8867 62.07 51.765 62.3767 53.375 62.99C55.0617 63.5267 56.5183 64.255 57.745 65.175C58.895 66.095 59.7767 67.1683 60.39 68.395C61.0033 69.6217 61.31 70.925 61.31 72.305C61.31 74.0683 60.735 75.525 59.585 76.675C58.435 77.825 56.9783 78.4 55.215 78.4C53.5283 78.4 52.0333 77.8633 50.73 76.79C49.5033 75.64 48.89 74.1067 48.89 72.19C48.89 70.58 49.3117 69.2767 50.155 68.28C51.075 67.2833 52.2633 66.6317 53.72 66.325C53.49 65.635 52.8767 65.06 51.88 64.6C50.96 64.0633 49.695 63.795 48.085 63.795C46.3217 63.795 44.7883 64.1783 43.485 64.945C42.2583 65.7117 41.3 66.7467 40.61 68.05C39.69 69.66 39.115 72.075 38.885 75.295C38.655 78.4383 38.54 83.3067 38.54 89.9V92.89H50.845V95.19H38.54V140.155C38.54 143.912 39.6133 146.442 41.76 147.745C43.9833 148.972 46.9733 149.585 50.73 149.585V152C48.9667 151.923 46.475 151.847 43.255 151.77C40.035 151.617 36.6233 151.54 33.02 151.54C30.4133 151.54 27.8067 151.617 25.2 151.77C22.67 151.847 20.7533 151.923 19.45 152V149.585C22.5933 149.585 24.8167 149.01 26.12 147.86C27.5 146.71 28.19 144.525 28.19 141.305V95.19H18.99V92.89H28.19C28.19 86.0667 28.6117 80.8533 29.455 77.25C30.375 73.57 31.9083 70.4267 34.055 67.82C35.5883 66.0567 37.5433 64.6767 39.92 63.68C42.2967 62.6067 44.9033 62.07 47.74 62.07ZM80.4376 153.307C74.7747 153.307 69.8061 151.959 65.5317 149.264C61.2845 146.569 57.963 142.798 55.5672 137.952C53.1986 133.106 52.0143 127.443 52.0143 120.963C52.0143 114.429 53.1986 108.725 55.5672 103.852C57.963 98.9786 61.2845 95.1942 65.5317 92.4989C69.8061 89.8036 74.7747 88.456 80.4376 88.456C86.1005 88.456 91.0555 89.8036 95.3026 92.4989C99.577 95.1942 102.899 98.9786 105.267 103.852C107.663 108.725 108.861 114.429 108.861 120.963C108.861 127.443 107.663 133.106 105.267 137.952C102.899 142.798 99.577 146.569 95.3026 149.264C91.0555 151.959 86.1005 153.307 80.4376 153.307ZM80.4376 144.649C84.7392 144.649 88.2785 143.547 91.0555 141.341C93.8325 139.136 95.888 136.237 97.222 132.643C98.5561 129.049 99.2231 125.156 99.2231 120.963C99.2231 116.77 98.5561 112.864 97.222 109.243C95.888 105.622 93.8325 102.695 91.0555 100.462C88.2785 98.2299 84.7392 97.1136 80.4376 97.1136C76.136 97.1136 72.5967 98.2299 69.8197 100.462C67.0427 102.695 64.9872 105.622 63.6531 109.243C62.3191 112.864 61.6521 116.77 61.6521 120.963C61.6521 125.156 62.3191 129.049 63.6531 132.643C64.9872 136.237 67.0427 139.136 69.8197 141.341C72.5967 143.547 76.136 144.649 80.4376 144.649ZM165.812 143.72C165.888 144.947 166.272 145.943 166.962 146.71C167.652 147.477 168.303 148.128 168.917 148.665C169.607 149.125 169.952 149.623 169.952 150.16V150.62C169.952 151.617 169.147 152.115 167.537 152.115H153.852C152.242 152.115 151.437 151.617 151.437 150.62V150.16C151.437 149.623 152.127 148.818 153.507 147.745C154.963 146.672 155.653 145.368 155.577 143.835L154.427 120.835C154.12 114.012 152.702 108.875 150.172 105.425C147.718 101.898 144.422 100.135 140.282 100.135C136.065 100.135 132.615 101.63 129.932 104.62C127.248 107.61 125.907 111.405 125.907 116.005V143.95C125.907 144.87 126.137 145.675 126.597 146.365C127.133 146.978 127.67 147.438 128.207 147.745C128.743 148.052 129.242 148.435 129.702 148.895C130.238 149.278 130.507 149.7 130.507 150.16V150.62C130.507 151.617 129.702 152.115 128.092 152.115H113.717C112.183 152.115 111.417 151.617 111.417 150.62V150.16C111.417 149.547 112.145 148.742 113.602 147.745C115.135 146.748 115.902 145.483 115.902 143.95V109.105C115.902 107.648 115.48 106.537 114.637 105.77C113.87 104.927 113.065 104.275 112.222 103.815C111.455 103.355 111.072 102.857 111.072 102.32V101.975C111.072 101.285 111.685 100.71 112.912 100.25L121.537 96.11C122.61 95.5733 123.415 95.4967 123.952 95.88C124.488 96.2633 124.757 96.915 124.757 97.835V106.23C126.443 103.01 128.858 100.442 132.002 98.525C135.222 96.6083 138.787 95.65 142.697 95.65C148.677 95.65 153.66 97.7583 157.647 101.975C161.71 106.192 164.01 112.555 164.547 121.065L165.812 143.72ZM200.797 145.675C201.027 145.675 201.219 145.867 201.372 146.25C201.525 146.557 201.487 146.787 201.257 146.94C198.42 149.24 195.852 150.888 193.552 151.885C191.252 152.882 188.799 153.38 186.192 153.38C182.972 153.38 180.289 152.652 178.142 151.195C176.072 149.662 175.037 147.17 175.037 143.72V116.925C175.037 115.085 174.884 113.743 174.577 112.9C174.27 111.98 173.695 111.367 172.852 111.06C172.085 110.753 170.82 110.6 169.057 110.6C168.827 110.6 168.712 110.332 168.712 109.795C168.712 109.258 168.827 108.99 169.057 108.99C172.277 108.913 174.884 108.108 176.877 106.575C178.947 105.042 180.212 102.895 180.672 100.135C180.749 99.905 181.055 99.79 181.592 99.79C182.129 99.79 182.397 99.905 182.397 100.135V108.875C186.077 108.798 191.329 108.415 198.152 107.725C198.382 107.725 198.574 107.993 198.727 108.53C198.88 109.067 198.957 109.68 198.957 110.37C198.957 111.06 198.842 111.75 198.612 112.44C198.382 113.053 198.114 113.322 197.807 113.245C193.514 112.248 188.377 111.673 182.397 111.52V139.81C182.397 145.943 185.387 149.01 191.367 149.01C194.587 149.01 197.654 147.937 200.567 145.79L200.797 145.675Z" fill="black"/>
</svg>
