<?xml version="1.0" standalone="no"?>
<!DOCTYPE svg PUBLIC "-//W3C//DTD SVG 20010904//EN"
 "http://www.w3.org/TR/2001/REC-SVG-20010904/DTD/svg10.dtd">
<svg version="1.0" xmlns="http://www.w3.org/2000/svg"
 width="700.000000pt" height="700.000000pt" viewBox="0 0 700.000000 700.000000"
 preserveAspectRatio="xMidYMid meet">
<metadata>
Created by potrace 1.14, written by Peter Selinger 2001-2017
</metadata>
<g transform="translate(0.000000,700.000000) scale(0.100000,-0.100000)"
fill="#000000" stroke="none">
<path d="M1355 5005 c-66 -18 -183 -78 -220 -113 -113 -104 -186 -256 -215
-447 -7 -44 -15 -152 -19 -240 l-6 -160 -147 -3 -148 -3 0 -34 0 -35 150 0
151 0 -3 -782 c-3 -727 -4 -786 -21 -823 -10 -21 -25 -48 -35 -59 -26 -29 -93
-55 -161 -62 l-61 -7 0 -39 0 -39 37 8 c48 9 842 9 906 -1 l47 -7 0 38 0 39
-94 11 c-106 12 -176 39 -224 86 -63 61 -62 51 -62 884 l0 753 195 0 195 0 0
35 0 35 -196 0 -197 0 6 313 c4 237 9 327 21 375 38 151 119 229 251 239 73 6
134 -9 175 -44 l32 -26 -51 -24 c-72 -35 -95 -71 -99 -158 -4 -83 13 -123 71
-169 36 -29 44 -31 121 -31 76 0 86 2 120 29 70 53 92 140 61 243 -28 95 -128
177 -264 217 -67 20 -245 20 -316 1z"/>
<path d="M2465 4180 c-320 -28 -590 -227 -716 -528 -61 -148 -81 -249 -86
-444 -8 -266 18 -411 107 -593 62 -126 133 -220 224 -297 284 -237 738 -262
1049 -58 271 177 417 489 417 890 0 220 -30 369 -105 529 -169 357 -486 535
-890 501z m227 -284 c107 -23 175 -61 255 -142 116 -117 181 -275 204 -496 20
-187 -14 -396 -89 -548 -46 -94 -149 -205 -230 -248 -156 -83 -389 -83 -545 0
-72 39 -160 125 -206 202 -129 215 -155 570 -62 839 53 152 168 296 282 351
109 53 261 69 391 42z"/>
<path d="M3731 3876 c-96 -45 -181 -92 -189 -104 -18 -28 -4 -53 52 -92 25
-16 55 -45 68 -63 l23 -32 3 -593 c3 -675 8 -632 -84 -702 -47 -35 -54 -45
-54 -75 0 -24 6 -38 19 -45 26 -14 536 -14 562 0 31 17 25 65 -13 97 -18 16
-50 44 -70 64 l-38 37 0 519 c0 562 1 577 56 685 32 62 111 149 168 182 70 41
148 58 245 54 74 -2 96 -8 153 -36 139 -68 226 -217 263 -447 17 -106 60 -906
50 -943 -3 -13 -33 -53 -66 -87 -64 -66 -76 -105 -40 -125 12 -6 118 -10 273
-10 213 0 257 2 276 16 34 24 27 51 -32 112 -29 31 -59 68 -66 81 -7 15 -21
176 -36 445 -24 419 -36 525 -75 653 -112 364 -449 558 -813 466 -153 -38
-277 -131 -379 -283 -16 -23 -17 -18 -17 123 0 134 -2 149 -20 167 -11 11 -26
20 -32 20 -7 0 -92 -38 -187 -84z"/>
<path d="M5736 3767 c-38 -130 -148 -211 -313 -232 -47 -6 -53 -9 -53 -31 0
-21 4 -24 43 -25 59 0 107 -19 131 -52 21 -28 21 -40 26 -565 l5 -537 23 -48
c45 -90 142 -143 281 -154 110 -8 205 11 309 62 88 43 212 129 220 152 8 26
-27 23 -73 -6 -80 -51 -138 -66 -250 -66 -88 0 -107 3 -150 25 -66 34 -109 97
-124 183 -7 40 -11 230 -11 522 l0 458 118 -7 c103 -5 189 -16 349 -42 40 -6
43 -5 54 22 11 28 8 128 -4 140 -3 3 -89 -1 -191 -10 -102 -9 -217 -16 -256
-16 l-70 0 0 140 0 140 -24 0 c-21 0 -27 -8 -40 -53z"/>
</g>
</svg>
